<svg width="433" height="376" viewBox="0 0 433 376" fill="none" xmlns="http://www.w3.org/2000/svg">
<mask id="path-1-outside-1_94_96" maskUnits="userSpaceOnUse" x="68" y="0" width="56" height="73" fill="black">
<rect fill="white" x="68" width="56" height="73"/>
<path d="M88 6C95.732 6 102 12.268 102 20C102 23.4717 100.735 26.6472 98.6426 29.0938L115.331 58L110.135 61L104.939 63.999L87.6143 33.9941C80.0606 33.7898 74 27.603 74 20C74 12.268 80.268 6 88 6Z"/>
</mask>
<path d="M88 6C95.732 6 102 12.268 102 20C102 23.4717 100.735 26.6472 98.6426 29.0938L115.331 58L110.135 61L104.939 63.999L87.6143 33.9941C80.0606 33.7898 74 27.603 74 20C74 12.268 80.268 6 88 6Z" fill="#F9B629"/>
<path d="M98.6426 29.0938L94.0828 25.1939L91.3247 28.4187L93.4464 32.0937L98.6426 29.0938ZM115.331 58L118.331 63.1962L123.527 60.1963L120.527 55.0001L115.331 58ZM110.135 61L113.134 66.1964L113.135 66.1962L110.135 61ZM104.939 63.999L99.7434 66.9993L102.743 72.1947L107.939 69.1954L104.939 63.999ZM87.6143 33.9941L92.8103 30.9939L91.1319 28.0871L87.7765 27.9963L87.6143 33.9941ZM88 6V12C92.4183 12 96 15.5817 96 20H102H108C108 8.95431 99.0457 0 88 0V6ZM102 20H96C96 21.9865 95.2823 23.7915 94.0828 25.1939L98.6426 29.0938L103.202 32.9936C106.188 29.5029 108 24.9569 108 20H102ZM98.6426 29.0938L93.4464 32.0937L110.135 60.9999L115.331 58L120.527 55.0001L103.839 26.0938L98.6426 29.0938ZM115.331 58L112.331 52.8038L107.135 55.8038L110.135 61L113.135 66.1962L118.331 63.1962L115.331 58ZM110.135 61L107.135 55.8036L101.94 58.8027L104.939 63.999L107.939 69.1954L113.134 66.1964L110.135 61ZM104.939 63.999L110.135 60.9988L92.8103 30.9939L87.6143 33.9941L82.4182 36.9944L99.7434 66.9993L104.939 63.999ZM87.6143 33.9941L87.7765 27.9963C83.463 27.8796 80 24.3433 80 20H74H68C68 30.8627 76.6583 39.6999 87.452 39.9919L87.6143 33.9941ZM74 20H80C80 15.5817 83.5817 12 88 12V6V0C76.9543 0 68 8.95431 68 20H74Z" fill="black" mask="url(#path-1-outside-1_94_96)"/>
<mask id="path-3-outside-2_94_96" maskUnits="userSpaceOnUse" x="310.353" y="0" width="57" height="74" fill="black">
<rect fill="white" x="310.353" width="57" height="74"/>
<path d="M347.353 6C339.621 6 333.353 12.268 333.353 20C333.353 23.4717 334.617 26.6472 336.71 29.0938L319.444 59L324.64 62L329.836 65L347.738 33.9941C355.292 33.7898 361.353 27.603 361.353 20C361.353 12.268 355.085 6 347.353 6Z"/>
</mask>
<path d="M347.353 6C339.621 6 333.353 12.268 333.353 20C333.353 23.4717 334.617 26.6472 336.71 29.0938L319.444 59L324.64 62L329.836 65L347.738 33.9941C355.292 33.7898 361.353 27.603 361.353 20C361.353 12.268 355.085 6 347.353 6Z" fill="#F9B629"/>
<path d="M336.71 29.0938L341.27 25.1939L344.028 28.4187L341.906 32.0937L336.71 29.0938ZM319.444 59L316.444 64.1959L311.248 61.1958L314.248 56.0001L319.444 59ZM324.64 62L321.64 67.1962L321.639 67.1959L324.64 62ZM329.836 65L335.032 68.0001L332.032 73.196L326.836 70.1962L329.836 65ZM347.738 33.9941L342.542 30.994L344.221 28.0871L347.576 27.9963L347.738 33.9941ZM347.353 6V12C342.934 12 339.353 15.5817 339.353 20H333.353H327.353C327.353 8.95431 336.307 0 347.353 0V6ZM333.353 20H339.353C339.353 21.9865 340.07 23.7915 341.27 25.1939L336.71 29.0938L332.15 32.9936C329.165 29.5029 327.353 24.9569 327.353 20H333.353ZM336.71 29.0938L341.906 32.0937L324.641 61.9999L319.444 59L314.248 56.0001L331.514 26.0938L336.71 29.0938ZM319.444 59L322.445 53.8041L327.64 56.8041L324.64 62L321.639 67.1959L316.444 64.1959L319.444 59ZM324.64 62L327.64 56.8038L332.836 59.8038L329.836 65L326.836 70.1962L321.64 67.1962L324.64 62ZM329.836 65L324.64 61.9999L342.542 30.994L347.738 33.9941L352.934 36.9943L335.032 68.0001L329.836 65ZM347.738 33.9941L347.576 27.9963C351.89 27.8796 355.353 24.3433 355.353 20H361.353H367.353C367.353 30.8627 358.694 39.6999 347.901 39.9919L347.738 33.9941ZM361.353 20H355.353C355.353 15.5817 351.771 12 347.353 12V6V0C358.398 0 367.353 8.95431 367.353 20H361.353Z" fill="black" mask="url(#path-3-outside-2_94_96)"/>
<rect x="3" y="46" width="427" height="327" rx="163.5" fill="#F9B629"/>
<rect x="3" y="46" width="427" height="327" rx="163.5" stroke="black" stroke-width="6"/>
<path d="M200.53 176.285C204.043 176.285 207.053 177.508 209.405 179.981C211.801 182.5 212.881 185.9 212.881 189.917V256.911C212.881 261.312 211.835 264.984 209.42 267.584C207.073 270.113 204.058 271.373 200.53 271.374C196.985 271.374 193.98 270.074 191.681 267.473L191.673 267.463L191.665 267.454C189.397 264.818 188.404 261.208 188.404 256.911V190.521C188.404 186.189 189.39 182.573 191.695 180.018L191.704 180.009L191.712 180C194.02 177.51 197.016 176.285 200.53 176.285ZM122.373 151.486C125.709 151.486 128.644 152.128 131.072 153.535L131.073 153.534C133.435 154.828 135.36 156.54 136.802 158.675H136.801C138.189 160.655 139.336 162.791 140.241 165.08C141.156 167.218 142.289 170.065 143.638 173.612L171.713 242.94C173.973 248.364 175.256 252.632 175.256 255.524C175.256 258.702 173.895 261.538 171.444 263.989C168.963 266.469 165.903 267.725 162.376 267.725C160.379 267.725 158.548 267.354 156.955 266.526V266.525C155.469 265.802 154.2 264.805 153.172 263.535L153.159 263.518L153.145 263.5C152.155 262.22 151.153 260.403 150.125 258.14L150.113 258.117L150.103 258.092C149.147 255.827 148.315 253.837 147.609 252.122L147.599 252.097L147.589 252.072L142.313 238.203L142.307 238.189L142.302 238.174L122.18 182.639L95.7593 252.372C93.7015 257.891 91.8633 261.87 90.2241 264.075L90.2173 264.084L90.2095 264.094C88.2556 266.654 85.176 267.725 81.4985 267.725C78.1508 267.725 75.19 266.479 72.6909 264.096C70.2045 261.725 68.8453 258.899 68.8452 255.675C68.8452 253.949 69.1335 252.195 69.688 250.42C70.214 248.737 71.066 246.444 72.228 243.564L72.2358 243.544L101.259 173.754C102.062 171.697 103.017 169.239 104.122 166.376L104.125 166.368L104.127 166.36C105.315 163.364 106.579 160.824 107.929 158.771L107.939 158.755L107.949 158.741C109.336 156.713 111.101 155.062 113.225 153.792L113.655 153.543C116.125 152.136 119.061 151.486 122.373 151.486ZM313.209 158.751C315.453 158.751 317.549 159.315 319.458 160.444C321.397 161.56 322.927 163.078 324.009 164.987C325.115 166.8 325.712 168.722 325.712 170.727C325.712 172.007 325.538 173.363 325.21 174.784L325.208 174.792L325.207 174.8C324.888 176.128 324.49 177.453 324.014 178.774L324.01 178.787L324.005 178.798C323.559 179.988 323.113 181.228 322.666 182.52L322.644 182.582L322.62 182.641L296.047 245.596C295.094 248.354 294.14 250.99 293.185 253.503L293.18 253.516C292.183 256.087 291.017 258.399 289.674 260.44L289.668 260.451L289.662 260.46C288.225 262.587 286.31 264.318 283.962 265.66L283.961 265.659C281.537 267.073 278.646 267.725 275.382 267.725C272.114 267.725 269.205 267.072 266.74 265.667C264.424 264.367 262.514 262.632 261.035 260.469L261.018 260.446L261.002 260.42C259.667 258.338 258.505 256.008 257.509 253.44C256.553 250.974 255.598 248.361 254.644 245.602L228.2 183.247L228.174 183.186L228.153 183.124C227.71 181.845 227.243 180.593 226.752 179.366L226.74 179.333L226.728 179.302C226.249 177.972 225.828 176.547 225.461 175.029L225.448 174.966C225.131 173.435 224.955 172.062 224.955 170.877C224.955 167.728 226.242 164.921 228.6 162.505C231.05 159.996 234.151 158.751 237.759 158.751C241.962 158.752 245.382 160.069 247.424 163.131H247.425C249.194 165.675 250.89 169.594 252.557 174.736L275.893 234.866L299.017 174.199C300.313 170.312 301.311 167.543 301.999 165.957C302.793 164.072 304.084 162.448 305.795 161.076C307.753 159.452 310.3 158.752 313.209 158.751ZM122.373 226.894C125.493 226.894 128.294 227.909 130.703 229.906C133.307 232.066 134.497 235.163 134.498 238.869C134.498 242.484 133.329 245.538 130.837 247.781L130.828 247.79L130.817 247.798C128.438 249.88 125.591 250.919 122.373 250.919C119.073 250.919 116.154 249.892 113.719 247.814L113.71 247.807L113.702 247.798C111.182 245.594 110.02 242.522 110.02 238.869C110.02 235.434 111.262 232.51 113.754 230.26C116.211 228.038 119.111 226.894 122.373 226.894ZM350.308 147.159C353.428 147.159 356.23 148.173 358.638 150.17C361.243 152.33 362.433 155.427 362.433 159.133C362.433 162.748 361.265 165.803 358.773 168.045L358.763 168.054L358.752 168.063C356.374 170.144 353.526 171.184 350.308 171.184C347.009 171.184 344.089 170.157 341.655 168.079L341.637 168.063C339.118 165.859 337.956 162.786 337.956 159.133C337.956 155.698 339.197 152.774 341.69 150.525C344.147 148.303 347.046 147.159 350.308 147.159ZM200.755 146.586C203.876 146.586 206.677 147.601 209.085 149.598C211.69 151.758 212.881 154.856 212.881 158.562C212.881 162.177 211.713 165.23 209.221 167.473L209.21 167.482L209.201 167.492C206.822 169.573 203.973 170.612 200.755 170.612C197.456 170.612 194.538 169.585 192.103 167.507L192.094 167.5L192.084 167.492C189.565 165.287 188.404 162.215 188.404 158.562C188.404 155.128 189.645 152.204 192.136 149.955L192.602 149.55C194.957 147.593 197.697 146.586 200.755 146.586ZM364.155 257.951C364.155 262.352 363.109 266.024 360.694 268.625C358.346 271.153 355.332 272.414 351.803 272.414C348.258 272.414 345.253 271.114 342.955 268.513L342.947 268.503L342.938 268.494C340.679 265.868 339.686 262.276 339.678 258.001L337.957 191.143L337.956 191.118V191.092C337.956 186.761 338.942 183.145 341.248 180.59L341.255 180.581L341.264 180.572C343.572 178.082 346.568 176.857 350.082 176.857C353.595 176.857 356.605 178.081 358.957 180.553C361.343 183.062 362.423 186.444 362.432 190.44L364.154 257.901L364.155 257.926V257.951Z" fill="black" stroke="black" stroke-width="3.90013"/>
</svg>
